<svg width="74" height="94" viewBox="0 0 74 94" fill="none" xmlns="http://www.w3.org/2000/svg">
<g clip-path="url(#clip0_2102_139)">
<path d="M72.9455 31.4505C71.8169 22.952 64.5038 16.2433 55.846 14.9527C54.3811 14.7335 48.8453 13.9299 36.0206 13.9299H35.9245C23.0879 13.9299 20.338 14.7335 18.873 14.9527C10.4433 16.2189 2.75813 22.2337 0.884866 30.8418C-0.00373548 35.0789 -0.0998005 39.7787 0.0683132 44.0888C0.308475 50.274 0.356508 56.4348 0.908881 62.5957C1.29314 66.6867 1.95359 70.7412 2.90223 74.7347C4.67943 82.1131 11.8603 88.2497 18.8971 90.7456C26.4261 93.3512 34.5317 93.7894 42.2888 91.9996C43.1414 91.7927 43.982 91.5614 44.8226 91.2935C46.7079 90.6847 48.9173 90.0029 50.5504 88.8097C50.5745 88.7975 50.5865 88.7732 50.5985 88.7488C50.6105 88.7245 50.6225 88.7001 50.6225 88.6635V82.6975C50.6225 82.6975 50.6225 82.6488 50.5985 82.6245C50.5985 82.6002 50.5745 82.5758 50.5504 82.5636C50.5264 82.5515 50.5024 82.5392 50.4785 82.5271C50.4543 82.5271 50.4304 82.5271 50.4064 82.5271C45.4349 83.7325 40.3316 84.3413 35.2281 84.3291C26.4261 84.3291 24.0605 80.0919 23.3881 78.3387C22.8477 76.8168 22.4995 75.2217 22.3554 73.6146C22.3554 73.5902 22.3554 73.5659 22.3674 73.5415C22.3674 73.5172 22.3914 73.4928 22.4155 73.4806C22.4394 73.4685 22.4634 73.4563 22.4874 73.4441H22.5715C27.4588 74.6373 32.4782 75.2461 37.5096 75.2461C38.7225 75.2461 39.9232 75.2461 41.1361 75.2096C46.1915 75.0634 51.5232 74.8077 56.5065 73.8216C56.6265 73.7972 56.7587 73.7729 56.8667 73.7485C64.7201 72.2144 72.1891 67.4172 72.9455 55.266C72.9697 54.7912 73.0417 50.2497 73.0417 49.7627C73.0417 48.0702 73.582 37.7941 72.9576 31.475L72.9455 31.4505Z" fill="url(#paint0_linear_2102_139)"/>
<path d="M14.8143 36.1993C14.8143 33.7155 16.7717 31.7188 19.1973 31.7188C21.623 31.7188 23.5802 33.7277 23.5802 36.1993C23.5802 38.6709 21.623 40.6798 19.1973 40.6798C16.7717 40.6798 14.8143 38.6709 14.8143 36.1993Z" fill="white"/>
<path d="M49.752 61.64C44.7173 61.64 40.7493 60.168 37.848 57.224C34.9467 54.28 33.496 50.056 33.496 44.552C33.496 39.048 34.9467 34.824 37.848 31.88C40.792 28.8933 44.76 27.4 49.752 27.4C53.1227 27.4 56.024 28.0613 58.456 29.384C60.888 30.7067 62.7653 32.648 64.088 35.208C65.4533 37.7253 66.136 40.84 66.136 44.552C66.136 50.056 64.664 54.28 61.72 57.224C58.776 60.168 54.7867 61.64 49.752 61.64ZM49.816 55.432C52.76 55.432 54.9147 54.5147 56.28 52.68C57.688 50.8453 58.392 48.136 58.392 44.552C58.392 40.968 57.688 38.2587 56.28 36.424C54.9147 34.5467 52.76 33.608 49.816 33.608C46.872 33.608 44.696 34.5467 43.288 36.424C41.9227 38.2587 41.24 40.968 41.24 44.552C41.24 48.136 41.9227 50.8453 43.288 52.68C44.696 54.5147 46.872 55.432 49.816 55.432Z" fill="white"/>
</g>
<defs>
<linearGradient id="paint0_linear_2102_139" x1="36.621" y1="13.9299" x2="36.621" y2="93.0712" gradientUnits="userSpaceOnUse">
<stop stop-color="#6364FF"/>
<stop offset="1" stop-color="#563ACC"/>
</linearGradient>
<clipPath id="clip0_2102_139">
<rect width="74" height="94" fill="white"/>
</clipPath>
</defs>
</svg>
