<svg width="313" height="81" viewBox="0 0 313 81" fill="none" xmlns="http://www.w3.org/2000/svg">
<g clip-path="url(#clip0_2102_139)">
<path d="M72.9455 18.4505C71.8169 9.95203 64.5038 3.24329 55.846 1.95268C54.3811 1.73352 48.8453 0.929932 36.0206 0.929932H35.9245C23.0879 0.929932 20.338 1.73352 18.873 1.95268C10.4433 3.21894 2.75813 9.23367 0.884866 17.8418C-0.00373548 22.0789 -0.0998005 26.7787 0.0683132 31.0888C0.308475 37.274 0.356508 43.4348 0.908881 49.5957C1.29314 53.6867 1.95359 57.7412 2.90223 61.7347C4.67943 69.1131 11.8603 75.2497 18.8971 77.7456C26.4261 80.3512 34.5317 80.7894 42.2888 78.9996C43.1414 78.7927 43.982 78.5614 44.8226 78.2935C46.7079 77.6847 48.9173 77.0029 50.5504 75.8097C50.5745 75.7975 50.5865 75.7732 50.5985 75.7488C50.6105 75.7245 50.6225 75.7001 50.6225 75.6635V69.6975C50.6225 69.6975 50.6225 69.6488 50.5985 69.6245C50.5985 69.6002 50.5745 69.5758 50.5504 69.5636C50.5264 69.5515 50.5024 69.5392 50.4785 69.5271C50.4543 69.5271 50.4304 69.5271 50.4064 69.5271C45.4349 70.7325 40.3316 71.3413 35.2281 71.3291C26.4261 71.3291 24.0605 67.0919 23.3881 65.3387C22.8477 63.8168 22.4995 62.2217 22.3554 60.6146C22.3554 60.5902 22.3554 60.5659 22.3674 60.5415C22.3674 60.5172 22.3914 60.4928 22.4155 60.4806C22.4394 60.4685 22.4634 60.4563 22.4874 60.4441H22.5715C27.4588 61.6373 32.4782 62.2461 37.5096 62.2461C38.7225 62.2461 39.9232 62.2461 41.1361 62.2096C46.1915 62.0634 51.5232 61.8077 56.5065 60.8216C56.6265 60.7972 56.7587 60.7729 56.8667 60.7485C64.7201 59.2144 72.1891 54.4172 72.9455 42.266C72.9697 41.7912 73.0417 37.2497 73.0417 36.7627C73.0417 35.0702 73.582 24.7941 72.9576 18.475L72.9455 18.4505Z" fill="url(#paint0_linear_2102_139)"/>
<path d="M14.8143 23.1993C14.8143 20.7155 16.7717 18.7188 19.1973 18.7188C21.623 18.7188 23.5802 20.7277 23.5802 23.1993C23.5802 25.6709 21.623 27.6798 19.1973 27.6798C16.7717 27.6798 14.8143 25.6709 14.8143 23.1993Z" fill="white"/>
<path d="M49.752 48.64C44.7173 48.64 40.7493 47.168 37.848 44.224C34.9467 41.28 33.496 37.056 33.496 31.552C33.496 26.048 34.9467 21.824 37.848 18.88C40.792 15.8933 44.76 14.4 49.752 14.4C53.1227 14.4 56.024 15.0613 58.456 16.384C60.888 17.7067 62.7653 19.648 64.088 22.208C65.4533 24.7253 66.136 27.84 66.136 31.552C66.136 37.056 64.664 41.28 61.72 44.224C58.776 47.168 54.7867 48.64 49.752 48.64ZM49.816 42.432C52.76 42.432 54.9147 41.5147 56.28 39.68C57.688 37.8453 58.392 35.136 58.392 31.552C58.392 27.968 57.688 25.2587 56.28 23.424C54.9147 21.5467 52.76 20.608 49.816 20.608C46.872 20.608 44.696 21.5467 43.288 23.424C41.9227 25.2587 41.24 27.968 41.24 31.552C41.24 35.136 41.9227 37.8453 43.288 39.68C44.696 41.5147 46.872 42.432 49.816 42.432ZM81.297 15.04V60.928H73.553V15.04H81.297ZM91.793 48.64C88.6357 48.64 86.0757 47.8933 84.113 46.4C82.1503 44.9067 80.721 42.88 79.825 40.32C78.929 37.7173 78.481 34.816 78.481 31.616C78.481 28.3307 78.929 25.408 79.825 22.848C80.721 20.2453 82.1503 18.1973 84.113 16.704C86.0757 15.168 88.6357 14.4 91.793 14.4C94.481 14.4 96.8917 15.0187 99.025 16.256C101.158 17.4507 102.822 19.328 104.017 21.888C105.254 24.4053 105.873 27.648 105.873 31.616C105.873 37.248 104.593 41.4933 102.033 44.352C99.473 47.2107 96.0597 48.64 91.793 48.64ZM89.617 42.496C92.5183 42.496 94.6517 41.5787 96.017 39.744C97.425 37.8667 98.129 35.136 98.129 31.552C98.129 27.968 97.425 25.2373 96.017 23.36C94.6517 21.4827 92.5183 20.544 89.617 20.544C86.7583 20.544 84.6463 21.4827 83.281 23.36C81.9583 25.2373 81.297 27.968 81.297 31.552C81.297 35.136 81.9583 37.8667 83.281 39.744C84.6463 41.5787 86.7583 42.496 89.617 42.496ZM115.223 28.544H134.487C134.402 25.984 133.719 24 132.439 22.592C131.159 21.1413 129.303 20.416 126.871 20.416C123.97 20.416 121.858 21.2907 120.535 23.04C119.212 24.7893 118.551 27.6267 118.551 31.552C118.551 35.4773 119.191 38.3147 120.471 40.064C121.794 41.7707 124.076 42.624 127.319 42.624C129.58 42.624 131.18 42.304 132.119 41.664C133.058 41.024 133.655 40.0853 133.911 38.848H141.911C141.612 40.768 140.887 42.4747 139.735 43.968C138.583 45.4187 136.983 46.5707 134.935 47.424C132.887 48.2347 130.348 48.64 127.319 48.64C121.943 48.64 117.847 47.168 115.031 44.224C112.258 41.28 110.871 37.0773 110.871 31.616C110.871 26.0693 112.258 21.824 115.031 18.88C117.847 15.8933 121.794 14.4 126.871 14.4C129.986 14.4 132.674 15.04 134.935 16.32C137.239 17.6 139.031 19.52 140.311 22.08C141.591 24.5973 142.231 27.7547 142.231 31.552V33.92H115.159L115.223 28.544ZM157.04 48H149.296V15.04H157.04L156.976 19.2C157.957 17.6213 159.152 16.4267 160.56 15.616C161.968 14.8053 163.76 14.4 165.936 14.4C169.605 14.4 172.549 15.424 174.768 17.472C176.986 19.4773 178.096 22.8693 178.096 27.648V48H170.352V27.712C170.352 25.152 169.818 23.3387 168.752 22.272C167.728 21.1627 166.192 20.608 164.144 20.608C162.608 20.608 161.306 20.8853 160.24 21.44C159.173 21.9947 158.362 22.8693 157.808 24.064C157.296 25.216 157.04 26.7307 157.04 28.608V48ZM201.127 48.64C195.794 48.64 191.74 47.168 188.967 44.224C186.236 41.2373 184.871 37.0133 184.871 31.552C184.871 26.048 186.258 21.824 189.031 18.88C191.847 15.8933 195.836 14.4 200.999 14.4C203.73 14.4 206.162 14.912 208.295 15.936C210.428 16.9173 212.135 18.2827 213.415 20.032C214.738 21.7387 215.42 23.7013 215.463 25.92H207.719C207.676 24.5973 207.143 23.3813 206.119 22.272C205.138 21.1627 203.452 20.608 201.063 20.608C197.948 20.608 195.751 21.5467 194.471 23.424C193.234 25.2587 192.615 27.968 192.615 31.552C192.615 35.136 193.234 37.8453 194.471 39.68C195.751 41.5147 197.948 42.432 201.063 42.432C203.41 42.432 205.095 41.9627 206.119 41.024C207.186 40.0427 207.783 38.784 207.911 37.248H215.655C215.612 39.168 214.994 41.0027 213.799 42.752C212.604 44.5013 210.919 45.9307 208.743 47.04C206.61 48.1067 204.071 48.64 201.127 48.64ZM230.29 48H222.546V2.048H230.29L230.226 19.2C231.207 17.6213 232.38 16.4267 233.746 15.616C235.154 14.8053 236.967 14.4 239.186 14.4C242.898 14.4 245.842 15.424 248.018 17.472C250.236 19.4773 251.346 22.848 251.346 27.584V48H243.602V27.584C243.602 25.1093 243.068 23.3387 242.002 22.272C240.978 21.1627 239.442 20.608 237.394 20.608C235.858 20.608 234.556 20.8853 233.49 21.44C232.423 21.9947 231.612 22.848 231.058 24C230.546 25.152 230.29 26.6453 230.29 28.48V48ZM290.121 48H285.577C283.7 48 282.249 47.36 281.225 46.08C280.201 44.8 279.646 43.0933 279.561 40.96L281.097 41.088C280.329 43.3493 279.049 45.184 277.257 46.592C275.465 47.9573 273.076 48.64 270.089 48.64C267.7 48.64 265.588 48.2773 263.753 47.552C261.961 46.8267 260.553 45.7173 259.529 44.224C258.548 42.688 258.057 40.768 258.057 38.464C258.057 36.416 258.441 34.7307 259.209 33.408C260.02 32.0427 261.086 30.976 262.409 30.208C263.732 29.44 265.182 28.9067 266.761 28.608C268.34 28.2667 269.918 28.096 271.497 28.096H279.625V25.92C279.625 24 279.134 22.592 278.153 21.696C277.214 20.7573 275.657 20.288 273.481 20.288C271.305 20.288 269.748 20.672 268.809 21.44C267.87 22.1653 267.273 23.3173 267.017 24.896H259.273C259.444 22.6347 260.169 20.736 261.449 19.2C262.772 17.6213 264.478 16.4267 266.569 15.616C268.702 14.8053 271.07 14.4 273.673 14.4C275.124 14.4 276.617 14.5707 278.153 14.912C279.732 15.2107 281.204 15.808 282.569 16.704C283.934 17.6 285.044 18.8373 285.897 20.416C286.75 21.952 287.177 23.9573 287.177 26.432V41.792H290.121V48ZM265.545 38.208C265.545 39.744 265.993 40.8747 266.889 41.6C267.785 42.3253 269.172 42.688 271.049 42.688C273.737 42.688 275.828 42.048 277.321 40.768C278.857 39.488 279.625 37.7813 279.625 35.648V33.472H271.561C269.513 33.472 267.998 33.8773 267.017 34.688C266.036 35.4987 265.545 36.672 265.545 38.208ZM312.171 21.248H305.387V41.792H312.171V48H307.051C304.32 48 302.059 47.36 300.267 46.08C298.517 44.7573 297.643 42.6027 297.643 39.616V21.248H292.395V15.04H297.643V5.632H305.387V15.04H312.171V21.248Z" fill="white"/>
</g>
<defs>
<linearGradient id="paint0_linear_2102_139" x1="36.621" y1="0.929932" x2="36.621" y2="80.0712" gradientUnits="userSpaceOnUse">
<stop stop-color="#6364FF"/>
<stop offset="1" stop-color="#563ACC"/>
</linearGradient>
<clipPath id="clip0_2102_139">
<rect width="313" height="81" fill="white"/>
</clipPath>
</defs>
</svg>
